<svg xmlns="http://www.w3.org/2000/svg" viewBox="0 0 1920 1080"><defs><style>.cls-1{fill:none;}.cls-1,.cls-3,.cls-4{stroke:#000;stroke-miterlimit:10;stroke-width:3px;}.cls-2{fill:#ccc;}.cls-3{fill:#ffb0cd;}.cls-4{fill:#f2f2f2;}</style></defs><title>Plan de travail 1QD9D</title><g id="Calque_1" data-name="Calque 1"><path d="M913.35,725.89a9.39,9.39,0,0,0-1.85-1.34c-4.57-2.44-11.08.6-17.66,8.13a46,46,0,0,0-6.36,9.16c-.71,1.55-.82,2.59-.34,2.9a27.63,27.63,0,0,1,3.34,3.35c1.75.91,5.2.32,8.72-1.59,6.22-3.34,11.68-10.17,14.71-17.82a26.47,26.47,0,0,0,1-2.88,6.33,6.33,0,0,1,.45,6.26c-2.7,7-10,14.71-17.29,17.7-2.41,1-4.25,1.29-5.35.93a57.62,57.62,0,0,0,6.1,8.43,3.49,3.49,0,0,0,2.56-.74,5.1,5.1,0,0,1,0,1.61c-1,1.42-4.48,3.24-5.77,3-1.59-1-2.31-2-4.16-6-3.29-7.18-4.94-9.75-7.84-11.52-2.49-1.53-4.47-1.38-5.73.48a1.45,1.45,0,0,1-.2-1.15c1.65-2.65,3.68-3.19,6.84-1.84-.5-1.71-.08-4.13,1.22-6.8,3.91-8,15.4-21,24.11-17.58a4.14,4.14,0,0,1,1.69,1.55C912.58,721.72,913.67,725,913.35,725.89Z"/><path d="M916,754.74a5.79,5.79,0,0,1,.74-1.5c-.37-.22-4.52,3.16-5.7,3.87a3.24,3.24,0,0,1-2,.62c-1.44-.81-3.07-3.32-2.5-5.29a13.16,13.16,0,0,1,1.7-3.55c2.53-4,7.71-10.11,11.46-11.45a4.77,4.77,0,0,1,2.45,2.74c-.6.39-3.6,2.89-8,8.1a33.27,33.27,0,0,0-4,6.1,1.5,1.5,0,0,0,0,.9c.83,0,2.32-1,5.41-3.37a29.25,29.25,0,0,0,5.81-5.33,16.27,16.27,0,0,1,4.66-4.73,5.57,5.57,0,0,1,2.71,2.81c-3.36,4.48-7.71,8.24-9.31,12.88-.87,2.51-.43,3.83-.62,4.41a.2.2,0,0,1-.21.11,8.67,8.67,0,0,1-2.75-3.24A6,6,0,0,1,916,754.74Z"/><path d="M924.77,757.46c1.57-4.75,5.81-9.46,9.94-11.26a5.34,5.34,0,0,1,4-.46,9.17,9.17,0,0,1,1.19,4c.2.08.42.11.62.19,1.23.46,1.43,2,.61,4.91-2.13,7.54-8.08,12.51-14.29,11.68C924.26,765.05,923.46,761.45,924.77,757.46Zm2.62,3.63c-.46,1.43-.49,3.18-.09,3.55,4.61.58,9.39-4,11.43-11a7.36,7.36,0,0,0,.44-3.19c-2.2,0-4.4,1.3-6.12,2.77A20.87,20.87,0,0,0,927.39,761.09Z"/><path d="M943.38,758.25c.53-1.11,2.82-5.45,5.23-6.11a7.26,7.26,0,0,1,2.42,4.07c-2.89,2.41-4.36,5.41-6.63,9a21.5,21.5,0,0,0-2.39,4.57c-.31,1.07-.41,1.5-.62,1.42a4.56,4.56,0,0,1-1.57-4.78A73.48,73.48,0,0,1,943.38,758.25Zm8.64-10a3.19,3.19,0,0,1,0-1.63,30.22,30.22,0,0,1,2.56-5.63c1,.34,2.89,2.91,3.23,4.49a41.1,41.1,0,0,0-5.37,5.13,1.63,1.63,0,0,1-.71-1.57A5.32,5.32,0,0,1,952,748.24Z"/><path d="M971.22,758.46c.52-5,.3-8.64-1.43-16.66a5.68,5.68,0,0,1,3.72-2.53c1.75,4.43,2.32,13.13,1.16,19.54-1.75,9.71-9.35,20.31-14.55,20-3.29-1.39-4.59-4.24-3.71-8.14,1.44-6.34,8.27-14.77,12-15A5.63,5.63,0,0,1,971.22,758.46Zm-.35,2.2a6.66,6.66,0,0,0,.22-1.36c-3.7,1.07-10.91,9.72-12,14.51-.34,1.56,0,2.55,1.08,3.08C964,776.32,969.49,767.88,970.87,760.66Z"/><path d="M976.25,774.49c-.06.38-.17.79-.24,1.21-.27,1.58-.33,3.79,1.07,4.09,2.65.56,5.71-2.31,7.54-4.13a7,7,0,0,1,.5.91c-2.71,3.29-6,5.39-8.42,5.55-3.34-1.19-4.8-4.6-4.14-8.31,1.37-7.62,8.64-15.68,12.74-14.51,1,.27,1.89,1.46,2.62,3.23C986.49,770.14,983,772.67,976.25,774.49Zm.59-1.7c4.24-1.64,7.63-4.95,8.43-9.17C982.64,763.6,979,767.26,976.84,772.79Z"/><path d="M1006.41,766.41c-1.36,3.33-5.78,9.57-6.36,12.4,1.75-1.92,4.58-5.59,5.5-6.63,2.06-2.35,5.74-6.69,8-6.5,1.2.09,2,1.53,2.36,2.75,0,.14-.4.16-1.1,1.1-1.42,2.13-4.31,8.15-4.59,12-.11,1.56.21,1.87.8,1.92s1.26-.37,1.59-.34a1.54,1.54,0,0,1,.27,1,5.85,5.85,0,0,1-3.33,1.67c-2.88-.27-3.37-2.57-3.14-5.36.13-1.56.64-3.45,2.67-8.3a10.31,10.31,0,0,0-3.14,2.39,72.14,72.14,0,0,0-6.71,8.11c-1.27,1.8-2.25,3.14-2.89,3.48a5.34,5.34,0,0,1-1.31-3.91c.08-2.18,2-7.46,4.09-12.09,2.4-5.26,4.34-8.36,4.75-8.55C1005.07,762.21,1006.09,764.28,1006.41,766.41Z"/><path d="M1019.5,780.44c0,.38-.08.8-.1,1.23-.07,1.61.13,3.81,1.55,3.88,2.68.14,5.36-3.19,7-5.28a7,7,0,0,1,.61.83c-2.29,3.69-5.27,6.28-7.66,6.82-3.44-.65-5.29-3.79-5.08-7.58.44-7.76,6.65-16.89,10.84-16.37,1,.11,2,1.15,3,2.78C1029.08,774.52,1025.9,777.58,1019.5,780.44Zm.37-1.78c4-2.29,6.94-6.1,7.23-10.41C1024.49,768.64,1021.3,772.85,1019.87,778.66Z"/><path d="M1039.86,781.53a7.18,7.18,0,0,1,.16-1.71c-.4,0-3,4.92-3.85,6.1a3.55,3.55,0,0,1-1.61,1.47c-1.57-.1-3.87-1.68-4-3.74a14.63,14.63,0,0,1,.35-4c.95-4.78,3.57-12.75,6.51-15.67a4.11,4.11,0,0,1,3.14,1.43,59.52,59.52,0,0,0-4.47,11,37.67,37.67,0,0,0-1.56,7.4,1.33,1.33,0,0,0,.26.85c.74-.37,1.76-1.93,3.75-5.51a34.33,34.33,0,0,0,3.47-7.51,18.77,18.77,0,0,1,2.64-6.43,4.77,4.77,0,0,1,3.4,1.38c-1.54,5.62-4.22,11-4.11,16,.06,2.7.9,3.72.92,4.34a.22.22,0,0,1-.15.19,7.37,7.37,0,0,1-3.59-1.75C1040.15,784.47,1039.87,782.62,1039.86,781.53Z"/><path d="M1050.81,797.94a2.79,2.79,0,0,0-1.39-2c.92-9.48,2.49-18.89,4-28.29a15.2,15.2,0,0,0-3.15.43,2.22,2.22,0,0,1-.37-1.12,23.7,23.7,0,0,1,3.81-1.28c1.73-9.71,4.92-16,8.59-16.39.54-.06,1.09,0,1.36,0a3.07,3.07,0,0,1,1.6-1,1.76,1.76,0,0,1,1.1.49,29.88,29.88,0,0,0-.72,4.14,10.76,10.76,0,0,1-1.42,4.73c-.28,0-.41-.34-.53-1.32a10.83,10.83,0,0,0-.36-1.91,5.56,5.56,0,0,1-.37-1.58c0-.38,0-.81,0-2-1.49.16-3.38,6-4.87,14.22,1.18-.15,1.77-.24,2.95-.41a8.09,8.09,0,0,1,.67,2.74c-1.57.05-2.36.06-3.93.08-2,10.75-4.33,21.48-5.78,32.33A2.17,2.17,0,0,1,1050.81,797.94Z"/><path d="M1078.28,751.32c-2.61,2.07-4.35,5.77-4.89,10.91a4.57,4.57,0,0,1-2.73-3.43,11.72,11.72,0,0,1,9.83-11.36c7.14-1.28,13.22,3.56,14.77,12.43,1.75,10-1.94,23.91-12.65,26.23-3.86.84-7.33-1-9.18-4.72A285,285,0,0,0,1078.28,751.32Zm.86-.57a12.35,12.35,0,0,1,4.23,2.16c-.53,1.49-2,8-3.32,14.6-1.69,8.37-2.41,13-2.2,14.76a6.91,6.91,0,0,0,2.9,0c9.85-2.09,12.69-15.24,11.16-24.23-1.07-6.35-4.76-9.4-9.65-8.49A8.47,8.47,0,0,0,1079.14,750.75Z"/><path d="M1098.37,773.17a23.81,23.81,0,0,1,3.15-15.55,6.17,6.17,0,0,1,3.18-2.83,7.51,7.51,0,0,1,2.86,2.68c.21-.06.41-.17.62-.22,1.25-.36,2.14.85,2.78,3.79,1.69,7.68-1,15.49-6.64,18.55C1101.45,779.92,1099.11,777.36,1098.37,773.17Zm3.87,1.5c.28,1.48,1.06,3,1.57,3.05,4.15-2.29,6-9.09,4.52-16.27a6.92,6.92,0,0,0-1.1-3c-1.86,1.34-3.11,3.76-3.88,6A24.07,24.07,0,0,0,1102.24,774.67Z"/><path d="M1120.56,749.93c2.35-.79,4.11.36,4.89,3.26s.15,5.95-1.18,6.41a2,2,0,0,1-1.9-.7c1.1-2.39,1.41-4.33,1-5.83-.23-.86-.62-1.22-1.13-1.05-.89.31-2.11,2.1-2.93,4.39a20.44,20.44,0,0,0-.56,11.44c.59,2.47,1.38,3.8,2.37,4,1.35-.68,3.57-3.13,5.23-6a1.54,1.54,0,0,1,.6.79c-.92,3-3.25,6.62-4.8,7.52-3.3.66-6.85-2.8-7.94-7.62C1112.67,759.66,1115.8,751.53,1120.56,749.93Z"/><path d="M1128.26,751.74a8.53,8.53,0,0,1-1.19-2.51c1.22-.34,2.34-.61,3.27-.91.34-4.07,1.11-8.68,1.68-9.5a6.17,6.17,0,0,1,3.92.22,73.54,73.54,0,0,0-1.28,7.81,20.94,20.94,0,0,0,2.72-1.3,2.18,2.18,0,0,1,.76,1.1,11.1,11.1,0,0,1-3.77,2.52c-.53,6.62-.28,13,.78,16.7.39,1.35,1,1.91,1.82,1.76a8.14,8.14,0,0,0,3.18-3.4,2.84,2.84,0,0,1,.46.58c-.22,1.24-2.2,4.49-2.94,4.8-2.18.92-5.88-.76-6.46-2.88-.81-2.94-1.17-9.52-1-15.71Z"/><path d="M1145.15,758.4c.12.36.21.77.34,1.18.49,1.51,1.43,3.43,2.78,2.85,2.56-1.1,3.91-5.38,4.68-8a4.29,4.29,0,0,1,.85.48c-.86,4.44-2.75,8.18-4.8,9.77-3.43,1-6.25-1.06-7.36-4.63-2.27-7.33.31-18.53,4.47-20,.94-.33,2.31.12,3.74,1.2C1152.07,748.57,1150.14,752.85,1145.15,758.4Zm-.26-1.8c2.93-3.93,4.38-8.78,3.16-12.87C1145.74,745.29,1144.22,750.61,1144.89,756.6Z"/><path d="M1164.6,750a6.93,6.93,0,0,1-.44-1.65c-.39.15-1.13,5.92-1.5,7.39a4.35,4.35,0,0,1-1,2.09c-1.52.63-4.23.21-5.08-1.58a13.91,13.91,0,0,1-1.06-3.85c-.76-4.82-1.06-13.35.68-17.38a4,4,0,0,1,3.45-.15,63.35,63.35,0,0,0-.4,12.17,37.42,37.42,0,0,0,1.1,7.51,1.18,1.18,0,0,0,.54.66c.57-.69,1-2.59,1.62-6.79a37.08,37.08,0,0,0,.65-8.5,20.05,20.05,0,0,1,.26-7.13,4.75,4.75,0,0,1,3.68-.32c.49,5.89-.16,12.09,1.66,16.61,1,2.45,2.14,3,2.37,3.55a.26.26,0,0,1-.07.25,7.08,7.08,0,0,1-4,.05C1165.9,752.61,1165,751,1164.6,750Z"/><path d="M1171.05,730.88a13.08,13.08,0,0,1,0-4.14,6.19,6.19,0,0,1,4.13.13,29.89,29.89,0,0,0,.45,9.22,45.23,45.23,0,0,0,2-11.35c.08-.26.22-.4.58-.62a1.74,1.74,0,0,1,1.77-.18,15.73,15.73,0,0,0,1.29,4.32,6.65,6.65,0,0,0,1.73,2.49,10.11,10.11,0,0,1-.27,3.13,6.19,6.19,0,0,1-4.38-2.28c-2.46,6.13-2.62,9.94-.6,18.53a4.85,4.85,0,0,1-3.81-.73A157.44,157.44,0,0,1,1171.05,730.88Z"/></g><g id="Calque_6" data-name="Calque 6"><path class="cls-1" d="M875.57,739.57a291.28,291.28,0,0,1-50.28-40.52,287.7,287.7,0,0,1-39.91-50.47c-11.61-18.67-18.83-27.15-17.22-32.14C775,595.14,844.82,608.73,854,584c3-8.1-5.67-17.26-3-19s13,6.2,17,17c2.57,6.93,3.58,17.78-1,20s-12.21-5.22-13-6"/><path class="cls-1" d="M1247.11,574.51c-.79.78-8.46,8.19-13,6s-3.57-13.07-1-20c4-10.8,14.28-18.77,17-17,2.54,1.65-5.15,10.8-3,19C1253,585,1310,576,1310,587l.11.4c-.11,17.6-19.85,48.38-34.43,70a290.47,290.47,0,0,1-52,58.37,282.59,282.59,0,0,1-35.78,26"/><path d="M1035.4,802.77c1.95,2.13,1.75,5.31.57,7.78-1.43,3-4.25,4.87-7.25,6.12-3.16,1.32-6.54,2.05-9.8,3.07a89.39,89.39,0,0,0-9.1,3.36c-5.82,2.54-11.44,5.95-15.72,10.7a28.38,28.38,0,0,0-7.45,17.66,27.47,27.47,0,0,0,23,28.65c15.27,2.59,27.78-8.13,37.74-18.22,5.43-5.51,10.8-11,17.17-15.47a80.76,80.76,0,0,1,19.55-10c1.73-.61,3.48-1.15,5.25-1.64a1.5,1.5,0,0,0-.79-2.89,86.27,86.27,0,0,0-37.34,21.91c-10.09,9.89-20.83,23.33-36.25,23.76a25.2,25.2,0,0,1-17.7-6.75,24.55,24.55,0,0,1-7.65-17.93,25.25,25.25,0,0,1,7-17.3c4.28-4.59,9.85-7.8,15.6-10.2a91.16,91.16,0,0,1,9-3.13,71.06,71.06,0,0,0,9.85-3.27c5.46-2.54,10.17-8.12,8.61-14.52a8.58,8.58,0,0,0-2.06-3.76c-1.31-1.43-3.43.7-2.13,2.12Z"/><circle class="cls-1" cx="1106.75" cy="828.25" r="18"/><circle cx="1106.75" cy="828.25" r="12.5"/></g><g id="Calque_4" data-name="Calque 4"><path class="cls-2" d="M1057,656.21c8,4.38,16.26,8.9,24.3,13.28a4.78,4.78,0,0,1,2.3,2c.61,1.38,0,3-.66,4.36q-3.2,6.89-6.38,13.75c-1,2.27-2.18,4.64-4.1,6.09-3,2.28-7,1.7-10.66,1-4.54-.84-8.83-1.77-13.37-2.6"/><path d="M1056.28,657.51l14.29,7.81,7.26,4c1.07.58,2.16,1.14,3.21,1.75a2,2,0,0,1,1.24,2.47,17.63,17.63,0,0,1-1.42,3.39l-1.85,4-3.39,7.32c-.92,2-1.78,4.13-3.33,5.7a7.71,7.71,0,0,1-6.08,1.92,55.52,55.52,0,0,1-8.29-1.35c-3-.59-6-1.21-9.05-1.77-1.89-.35-2.7,2.54-.8,2.89,5.74,1.07,11.52,2.69,17.34,3.18a11.93,11.93,0,0,0,7.19-1.32,12.92,12.92,0,0,0,4.62-5.63c1.28-2.6,2.44-5.25,3.66-7.87s2.65-5.47,3.81-8.27c1-2.32,1-4.85-1.1-6.53a23.13,23.13,0,0,0-3.4-2l-4-2.21q-9.18-5-18.35-10c-1.7-.92-3.22,1.67-1.52,2.59Z"/><path class="cls-2" d="M999,656.93c-8,4.38-14.2,7.93-22.24,12.31a4.78,4.78,0,0,0-2.3,2c-.61,1.38,0,3,.66,4.37q3.2,6.87,6.38,13.74c1.05,2.27,2.18,4.64,4.1,6.09,3,2.28,7.05,1.71,10.67,1,4.53-.84,7.43-1.52,12-2.35"/><path d="M998.29,655.64c-5,2.73-10,5.54-15,8.32-2.5,1.39-5,2.72-7.53,4.15-2.27,1.31-3.42,3.3-2.77,5.94a20.18,20.18,0,0,0,1.52,3.66l2,4.44,3.71,8c1,2.21,2.13,4.54,4,6.16a10.5,10.5,0,0,0,6.86,2.3,43.64,43.64,0,0,0,8.5-1.2c3-.6,6-1.24,9-1.8,1.9-.35,1.09-3.24-.8-2.89-4.64.86-9.25,2-13.93,2.69-2.15.29-4.55.44-6.54-.59s-3-2.9-3.88-4.75c-2.36-4.78-4.51-9.68-6.75-14.52a6.81,6.81,0,0,1-1-3.1c.08-1.17,1.34-1.65,2.23-2.13q3.4-1.86,6.79-3.75c5-2.78,10-5.59,15-8.32,1.7-.93.19-3.52-1.51-2.59Z"/><path class="cls-3" d="M1099.87,529.53Q1087,585,1074.17,640.47l54-40.8"/><path class="cls-1" d="M974.66,674.11A705.61,705.61,0,0,1,918,620.43c-30.84-32.6-46.13-49-59.65-73.36-31.18-56.11-6-68.39-37.23-154.24-.35-1-19-52.12-7.25-68.71.84-1.19,3.22-4.57,7.25-5.72,8.75-2.52,18.09,7.57,21.75,11.45,21,22.34,45.41,40.76,66.56,63,23.1,24.28,32.21,33.46,46,51.14,0,0,8.36,10.69,14.92,20.08,30.5,43.68,39.29,159.65,40.53,177.13a38.71,38.71,0,0,1,7.25-3.57,27.32,27.32,0,0,1,10.54-2.15,25.73,25.73,0,0,1,11.2,2.86,30.25,30.25,0,0,1,7.25,5c2.66-16.92,4.68-29.81,5.93-37.93.59-3.79,1.1-7.07,1.9-11.76.72-4.25,1.27-7.13,2-11.56.69-4,1.12-6.78,1.35-8.17,4.07-25.26,7.26-45,15.81-65.13,7.38-17.4,13.26-22.18,15.16-23.62,2.87-2.18,11.22-7.83,21.75-7.16,1.9.12,1.52.3,19.44,6.8a175.67,175.67,0,0,0,18.78,6.08c13.22,3.35,20,2.89,26,3.94,19.63,3.42,35.2,23.42,41.85,37.58,8.92,19,6.12,36.77,1.32,67.27-4.11,26.11-11,40.24-16.48,81.6-.6,4.55-1,8.3-1.32,10.73q-2.21,12-7.24,13.6-15.49,5-57.67-88.39c-26.11-57.37-34.63-80.07-35.92-87.68-.24-1.44-1-7.32-5.27-11.45a16.28,16.28,0,0,0-9.22-4.29"/><path class="cls-1" d="M1140.08,626.87q-14.25,10.85-29,22.9-14.07,11.54-27,22.91"/><path class="cls-3" d="M852.08,384.24c-3.65,2.34-2.7,9.35,4,51.53,9.76,61.81,11.46,70.35,17.13,83,2.4,5.37,8.45,18,30.32,44.37A525.65,525.65,0,0,0,981.25,639c-4.15-29.16-8.09-53.74-11.2-72.29-9-53.65-12.33-64.39-17.8-75.87-7.12-14.95-17.8-27.34-38.88-51.53C883.8,405.42,860.6,378.8,852.08,384.24Z"/><ellipse class="cls-4" cx="1028.04" cy="668.38" rx="30.31" ry="32.92"/><ellipse class="cls-4" cx="1027.71" cy="668.74" rx="13.51" ry="14.67"/></g></svg>